<svg width="20" height="21" viewBox="0 0 20 21" fill="none" xmlns="http://www.w3.org/2000/svg">
<g clip-path="url(#clip0_6_273)">
<path d="M9.76538 7.33488L12.3835 10.2408L12.396 10.0886C12.396 8.56181 11.2781 7.32104 9.90252 7.32104L9.76538 7.33488Z" fill="black"/>
<path d="M9.90245 5.47571C12.1965 5.47571 14.0583 7.54215 14.0583 10.0883C14.0583 10.6833 13.9502 11.2507 13.7632 11.7719L16.1944 14.4702C17.4494 13.3079 18.4385 11.8042 19.0494 10.0883C17.6073 6.03847 14.0624 3.16943 9.90249 3.16943C8.73885 3.16943 7.62513 3.40005 6.59033 3.81518L8.38564 5.80318C8.85519 5.60025 9.36635 5.47571 9.90245 5.47571Z" fill="black"/>
<path d="M1.59091 2.96209L3.48595 5.06543L3.86414 5.48519C2.49273 6.67523 1.40807 8.25736 0.759766 10.0885C2.19768 14.1383 5.74672 17.0074 9.90253 17.0074C11.1908 17.0074 12.4209 16.7306 13.5472 16.2278L13.9004 16.6199L16.3233 19.3137L17.383 18.1421L2.65064 1.78589L1.59091 2.96209ZM6.18725 8.059L7.47139 9.48429C7.43399 9.68264 7.40905 9.88095 7.40905 10.0885C7.40905 11.6153 8.52695 12.8561 9.90253 12.8561C10.0895 12.8561 10.2683 12.8284 10.4428 12.7869L11.7269 14.2122C11.1742 14.5166 10.5592 14.7011 9.90253 14.7011C7.60853 14.7011 5.74672 12.6347 5.74672 10.0885C5.74672 9.35975 5.91296 8.67707 6.18725 8.059Z" fill="black"/>
</g>
<defs>
<clipPath id="clip0_6_273">
<rect width="18.2897" height="20.2999" fill="white" transform="translate(0.759766 0.399658)"/>
</clipPath>
</defs>
</svg>
