<svg width="20" height="21" viewBox="0 0 20 21" fill="none" xmlns="http://www.w3.org/2000/svg">
<g clip-path="url(#clip0_6_319)">
<path d="M9.74072 7.61089L12.43 10.493L12.4428 10.342C12.4428 8.82775 11.2945 7.59717 9.88159 7.59717L9.74072 7.61089Z" fill="black"/>
<path d="M9.88153 5.76732C12.2378 5.76732 14.1502 7.8168 14.1502 10.342C14.1502 10.9322 14.0392 11.4949 13.8471 12.0118L16.3443 14.688C17.6334 13.5352 18.6493 12.0438 19.2768 10.342C17.7956 6.32546 14.1545 3.47998 9.88157 3.47998C8.68634 3.47998 7.54238 3.7087 6.47949 4.12042L8.32354 6.09211C8.80584 5.89083 9.33088 5.76732 9.88153 5.76732Z" fill="black"/>
<path d="M1.34443 3.27422L3.29093 5.36028L3.67938 5.77659C2.27074 6.95687 1.15663 8.526 0.490723 10.3421C1.96768 14.3587 5.61307 17.2042 9.8817 17.2042C11.205 17.2042 12.4685 16.9297 13.6253 16.431L13.9881 16.8199L16.4768 19.4915L17.5653 18.3296L2.43293 2.10767L1.34443 3.27422ZM6.06556 8.32928L7.38456 9.74286C7.34614 9.93959 7.32053 10.1363 7.32053 10.3421C7.32053 11.8564 8.46878 13.087 9.8817 13.087C10.0738 13.087 10.2574 13.0595 10.4366 13.0183L11.7556 14.4319C11.1879 14.7338 10.5562 14.9168 9.8817 14.9168C7.52543 14.9168 5.61307 12.8674 5.61307 10.3421C5.61307 9.61934 5.78383 8.94227 6.06556 8.32928Z" fill="black"/>
</g>
<defs>
<clipPath id="clip0_6_319">
<rect width="18.7862" height="20.1333" fill="white" transform="translate(0.490723 0.73291)"/>
</clipPath>
</defs>
</svg>
